<?xml version="1.0" encoding="utf-8"?>
<!-- Generator: Adobe Illustrator 14.0.0, SVG Export Plug-In . SVG Version: 6.00 Build 43363)  -->
<!DOCTYPE svg PUBLIC "-//W3C//DTD SVG 1.1//EN" "http://www.w3.org/Graphics/SVG/1.1/DTD/svg11.dtd">
<svg version="1.1" id="Layer_1" xmlns="http://www.w3.org/2000/svg" xmlns:xlink="http://www.w3.org/1999/xlink" x="0px" y="0px"
	 width="600px" height="600px" viewBox="0 0 600 600" enable-background="new 0 0 600 600" xml:space="preserve">
<path d="M427.9,380.4C395.5,406.8,363.5,419.3,333.4,417.6c-5.601-0.3-10.9-0.8-11.801-1.199c-1.5-0.601-1.6-6.5-1.6-65V287h37.1h37
	l10.801-22.3l10.8-22.2l-23.4-0.3c-12.8-0.1-23.3-0.5-23.3-0.8c0-0.2,14-15.4,31.1-33.7c23-24.6,30.601-33.3,29.301-33.6
	c-1-0.2-4.2,0.2-7.2,0.9c-10,2.2-32.4-0.5-50.2-6.2c-10.2-3.2-27.9-11.6-35.3-16.7c-2.5-1.7-4.7-3.1-4.9-3.1
	c-0.2,0.1-20.5,18.3-45.3,40.5l-45,40.5l0.3,7.3c0.2,3.9,0.8,11,1.3,15.7s1.2,16.8,1.5,27c1.1,31.9-4.1,82.7-8.7,85.6
	c-1.3,0.801-11.8-15.8-16.1-25.699c-7.1-16.101-11.1-37-11-57.9c0-14.4,3.3-26.7,11.2-42.5c8.7-17.3,17.2-28.7,35.5-47.3
	c15.7-15.9,16-16.2,12.7-16.2c-4.3,0-16.3,4.8-25.3,10.1c-21.4,12.4-40.2,33.6-56.5,63.5c-8.3,15.3-12.1,28-15.8,53.5
	c-5,33.9,2.7,68.4,21.4,96.5c17.6,26.301,50.7,47.7,85,55.101c12.1,2.6,48.4,2.6,62,0c21.8-4.101,37.1-10.601,54.7-23
	c21.2-15,34.2-32.5,36.899-49.8l0.7-4.301L427.9,380.4z M320,238.7c0-21.3,0.2-38.7,0.4-38.7c0.699,0,52.899,19.9,53.3,20.4
	c0.5,0.4-27.4,30.1-48.3,51.6l-5.4,5.5V238.7z M308,416l-2.7-0.6c-10.4-2.5-26.6-9.9-36.8-16.7c-6-4-21.2-16.4-23.5-19.2
	c-0.9-1.1,0.5-3.1,7.7-10.8c9.1-9.601,21.4-25,29.8-37c8.2-11.7,8.4-14.2,8.5-73.2v-50l7.7-7.2c4.3-4,8.1-7.2,8.6-7.3
	c0.4,0,0.7,50,0.7,111V416z"/>
</svg>
